<?xml version="1.0" encoding="utf-8" standalone="no"?>
<!DOCTYPE svg PUBLIC "-//W3C//DTD SVG 1.1//EN"
  "http://www.w3.org/Graphics/SVG/1.1/DTD/svg11.dtd">
<svg xmlns:xlink="http://www.w3.org/1999/xlink" width="605.803125pt" height="298.331875pt" viewBox="0 0 605.803125 298.331875" xmlns="http://www.w3.org/2000/svg" version="1.1">
 <metadata>
  <rdf:RDF xmlns:dc="http://purl.org/dc/elements/1.1/" xmlns:cc="http://creativecommons.org/ns#" xmlns:rdf="http://www.w3.org/1999/02/22-rdf-syntax-ns#">
   <cc:Work>
    <dc:type rdf:resource="http://purl.org/dc/dcmitype/StillImage"/>
    <dc:date>2024-12-09T11:33:28.016089</dc:date>
    <dc:format>image/svg+xml</dc:format>
    <dc:creator>
     <cc:Agent>
      <dc:title>Matplotlib v3.7.3, https://matplotlib.org/</dc:title>
     </cc:Agent>
    </dc:creator>
   </cc:Work>
  </rdf:RDF>
 </metadata>
 <defs>
  <style type="text/css">*{stroke-linejoin: round; stroke-linecap: butt}</style>
 </defs>
 <g id="figure_1">
  <g id="patch_1">
   <path d="M 0 298.331875 
L 605.803125 298.331875 
L 605.803125 0 
L 0 0 
z
" style="fill: #ffffff"/>
  </g>
  <g id="axes_1">
   <g id="patch_2">
    <path d="M 40.603125 228.96 
L 598.603125 228.96 
L 598.603125 7.2 
L 40.603125 7.2 
z
" style="fill: #ffffff"/>
   </g>
   <g id="patch_3">
    <path d="M 43.57121 228.96 
L 49.50738 228.96 
L 49.50738 38.935541 
L 43.57121 38.935541 
z
" clip-path="url(#p532df68875)" style="fill: #ffd700"/>
   </g>
   <g id="patch_4">
    <path d="M 55.443551 228.96 
L 61.379721 228.96 
L 61.379721 17.76 
L 55.443551 17.76 
z
" clip-path="url(#p532df68875)" style="fill: #ffd700"/>
   </g>
   <g id="patch_5">
    <path d="M 67.315891 228.96 
L 73.252061 228.96 
L 73.252061 53.327412 
L 67.315891 53.327412 
z
" clip-path="url(#p532df68875)" style="fill: #ffd700"/>
   </g>
   <g id="patch_6">
    <path d="M 79.188231 228.96 
L 85.124402 228.96 
L 85.124402 32.992943 
L 79.188231 32.992943 
z
" clip-path="url(#p532df68875)" style="fill: #ffd700"/>
   </g>
   <g id="patch_7">
    <path d="M 91.060572 228.96 
L 96.996742 228.96 
L 96.996742 39.587005 
L 91.060572 39.587005 
z
" clip-path="url(#p532df68875)" style="fill: #ffd700"/>
   </g>
   <g id="patch_8">
    <path d="M 102.932912 228.96 
L 108.869082 228.96 
L 108.869082 45.853223 
L 102.932912 45.853223 
z
" clip-path="url(#p532df68875)" style="fill: #ffd700"/>
   </g>
   <g id="patch_9">
    <path d="M 114.805253 228.96 
L 120.741423 228.96 
L 120.741423 43.352637 
L 114.805253 43.352637 
z
" clip-path="url(#p532df68875)" style="fill: #ffd700"/>
   </g>
   <g id="patch_10">
    <path d="M 126.677593 228.96 
L 132.613763 228.96 
L 132.613763 32.300674 
L 126.677593 32.300674 
z
" clip-path="url(#p532df68875)" style="fill: #ffd700"/>
   </g>
   <g id="patch_11">
    <path d="M 138.549934 228.96 
L 144.486104 228.96 
L 144.486104 61.876573 
L 138.549934 61.876573 
z
" clip-path="url(#p532df68875)" style="fill: #ffd700"/>
   </g>
   <g id="patch_12">
    <path d="M 150.422274 228.96 
L 156.358444 228.96 
L 156.358444 50.779553 
L 150.422274 50.779553 
z
" clip-path="url(#p532df68875)" style="fill: #ffd700"/>
   </g>
   <g id="patch_13">
    <path d="M 162.294614 228.96 
L 168.230785 228.96 
L 168.230785 39.942615 
L 162.294614 39.942615 
z
" clip-path="url(#p532df68875)" style="fill: #ffd700"/>
   </g>
   <g id="patch_14">
    <path d="M 174.166955 228.96 
L 180.103125 228.96 
L 180.103125 31.580118 
L 174.166955 31.580118 
z
" clip-path="url(#p532df68875)" style="fill: #ffd700"/>
   </g>
   <g id="patch_15">
    <path d="M 186.039295 228.96 
L 191.975465 228.96 
L 191.975465 81.164777 
L 186.039295 81.164777 
z
" clip-path="url(#p532df68875)" style="fill: #ffd700"/>
   </g>
   <g id="patch_16">
    <path d="M 197.911636 228.96 
L 203.847806 228.96 
L 203.847806 18.54671 
L 197.911636 18.54671 
z
" clip-path="url(#p532df68875)" style="fill: #ffd700"/>
   </g>
   <g id="patch_17">
    <path d="M 209.783976 228.96 
L 215.720146 228.96 
L 215.720146 51.347946 
L 209.783976 51.347946 
z
" clip-path="url(#p532df68875)" style="fill: #ffd700"/>
   </g>
   <g id="patch_18">
    <path d="M 221.656316 228.96 
L 227.592487 228.96 
L 227.592487 69.465841 
L 221.656316 69.465841 
z
" clip-path="url(#p532df68875)" style="fill: #ffd700"/>
   </g>
   <g id="patch_19">
    <path d="M 233.528657 228.96 
L 239.464827 228.96 
L 239.464827 29.477415 
L 233.528657 29.477415 
z
" clip-path="url(#p532df68875)" style="fill: #ffd700"/>
   </g>
   <g id="patch_20">
    <path d="M 245.400997 228.96 
L 251.337168 228.96 
L 251.337168 67.762653 
L 245.400997 67.762653 
z
" clip-path="url(#p532df68875)" style="fill: #ffd700"/>
   </g>
   <g id="patch_21">
    <path d="M 257.273338 228.96 
L 263.209508 228.96 
L 263.209508 81.716907 
L 257.273338 81.716907 
z
" clip-path="url(#p532df68875)" style="fill: #ffd700"/>
   </g>
   <g id="patch_22">
    <path d="M 269.145678 228.96 
L 275.081848 228.96 
L 275.081848 85.307708 
L 269.145678 85.307708 
z
" clip-path="url(#p532df68875)" style="fill: #ffd700"/>
   </g>
   <g id="patch_23">
    <path d="M 281.018019 228.96 
L 286.954189 228.96 
L 286.954189 65.967525 
L 281.018019 65.967525 
z
" clip-path="url(#p532df68875)" style="fill: #ffd700"/>
   </g>
   <g id="patch_24">
    <path d="M 292.890359 228.96 
L 298.826529 228.96 
L 298.826529 62.335707 
L 292.890359 62.335707 
z
" clip-path="url(#p532df68875)" style="fill: #ffd700"/>
   </g>
   <g id="patch_25">
    <path d="M 304.762699 228.96 
L 310.69887 228.96 
L 310.69887 45.932804 
L 304.762699 45.932804 
z
" clip-path="url(#p532df68875)" style="fill: #ffd700"/>
   </g>
   <g id="patch_26">
    <path d="M 316.63504 228.96 
L 322.57121 228.96 
L 322.57121 63.646805 
L 316.63504 63.646805 
z
" clip-path="url(#p532df68875)" style="fill: #ffd700"/>
   </g>
   <g id="patch_27">
    <path d="M 328.50738 228.96 
L 334.443551 228.96 
L 334.443551 70.119524 
L 328.50738 70.119524 
z
" clip-path="url(#p532df68875)" style="fill: #ffd700"/>
   </g>
   <g id="patch_28">
    <path d="M 340.379721 228.96 
L 346.315891 228.96 
L 346.315891 72.35366 
L 340.379721 72.35366 
z
" clip-path="url(#p532df68875)" style="fill: #ffd700"/>
   </g>
   <g id="patch_29">
    <path d="M 352.252061 228.96 
L 358.188231 228.96 
L 358.188231 67.524686 
L 352.252061 67.524686 
z
" clip-path="url(#p532df68875)" style="fill: #ffd700"/>
   </g>
   <g id="patch_30">
    <path d="M 364.124402 228.96 
L 370.060572 228.96 
L 370.060572 70.387108 
L 364.124402 70.387108 
z
" clip-path="url(#p532df68875)" style="fill: #ffd700"/>
   </g>
   <g id="patch_31">
    <path d="M 375.996742 228.96 
L 381.932912 228.96 
L 381.932912 81.142244 
L 375.996742 81.142244 
z
" clip-path="url(#p532df68875)" style="fill: #ffd700"/>
   </g>
   <g id="patch_32">
    <path d="M 387.869082 228.96 
L 393.805253 228.96 
L 393.805253 78.449179 
L 387.869082 78.449179 
z
" clip-path="url(#p532df68875)" style="fill: #ffd700"/>
   </g>
   <g id="patch_33">
    <path d="M 399.741423 228.96 
L 405.677593 228.96 
L 405.677593 60.057513 
L 399.741423 60.057513 
z
" clip-path="url(#p532df68875)" style="fill: #ffd700"/>
   </g>
   <g id="patch_34">
    <path d="M 411.613763 228.96 
L 417.549934 228.96 
L 417.549934 103.896794 
L 411.613763 103.896794 
z
" clip-path="url(#p532df68875)" style="fill: #ffd700"/>
   </g>
   <g id="patch_35">
    <path d="M 423.486104 228.96 
L 429.422274 228.96 
L 429.422274 50.028306 
L 423.486104 50.028306 
z
" clip-path="url(#p532df68875)" style="fill: #ffd700"/>
   </g>
   <g id="patch_36">
    <path d="M 435.358444 228.96 
L 441.294614 228.96 
L 441.294614 54.589319 
L 435.358444 54.589319 
z
" clip-path="url(#p532df68875)" style="fill: #ffd700"/>
   </g>
   <g id="patch_37">
    <path d="M 447.230785 228.96 
L 453.166955 228.96 
L 453.166955 75.182061 
L 447.230785 75.182061 
z
" clip-path="url(#p532df68875)" style="fill: #ffd700"/>
   </g>
   <g id="patch_38">
    <path d="M 459.103125 228.96 
L 465.039295 228.96 
L 465.039295 64.448864 
L 459.103125 64.448864 
z
" clip-path="url(#p532df68875)" style="fill: #ffd700"/>
   </g>
   <g id="patch_39">
    <path d="M 470.975465 228.96 
L 476.911636 228.96 
L 476.911636 70.043465 
L 470.975465 70.043465 
z
" clip-path="url(#p532df68875)" style="fill: #ffd700"/>
   </g>
   <g id="patch_40">
    <path d="M 482.847806 228.96 
L 488.783976 228.96 
L 488.783976 64.877236 
L 482.847806 64.877236 
z
" clip-path="url(#p532df68875)" style="fill: #ffd700"/>
   </g>
   <g id="patch_41">
    <path d="M 494.720146 228.96 
L 500.656316 228.96 
L 500.656316 102.448367 
L 494.720146 102.448367 
z
" clip-path="url(#p532df68875)" style="fill: #ffd700"/>
   </g>
   <g id="patch_42">
    <path d="M 506.592487 228.96 
L 512.528657 228.96 
L 512.528657 71.568225 
L 506.592487 71.568225 
z
" clip-path="url(#p532df68875)" style="fill: #ffd700"/>
   </g>
   <g id="patch_43">
    <path d="M 518.464827 228.96 
L 524.400997 228.96 
L 524.400997 95.602673 
L 518.464827 95.602673 
z
" clip-path="url(#p532df68875)" style="fill: #ffd700"/>
   </g>
   <g id="patch_44">
    <path d="M 530.337168 228.96 
L 536.273338 228.96 
L 536.273338 95.734163 
L 530.337168 95.734163 
z
" clip-path="url(#p532df68875)" style="fill: #ffd700"/>
   </g>
   <g id="patch_45">
    <path d="M 542.209508 228.96 
L 548.145678 228.96 
L 548.145678 46.726205 
L 542.209508 46.726205 
z
" clip-path="url(#p532df68875)" style="fill: #ffd700"/>
   </g>
   <g id="patch_46">
    <path d="M 554.081848 228.96 
L 560.018019 228.96 
L 560.018019 98.633773 
L 554.081848 98.633773 
z
" clip-path="url(#p532df68875)" style="fill: #ffd700"/>
   </g>
   <g id="patch_47">
    <path d="M 565.954189 228.96 
L 571.890359 228.96 
L 571.890359 87.275525 
L 565.954189 87.275525 
z
" clip-path="url(#p532df68875)" style="fill: #ffd700"/>
   </g>
   <g id="patch_48">
    <path d="M 577.826529 228.96 
L 583.762699 228.96 
L 583.762699 89.518198 
L 577.826529 89.518198 
z
" clip-path="url(#p532df68875)" style="fill: #ffd700"/>
   </g>
   <g id="patch_49">
    <path d="M 589.69887 228.96 
L 595.63504 228.96 
L 595.63504 91.918971 
L 589.69887 91.918971 
z
" clip-path="url(#p532df68875)" style="fill: #ffd700"/>
   </g>
   <g id="matplotlib.axis_1">
    <g id="xtick_1">
     <g id="line2d_1">
      <defs>
       <path id="m631a4198e7" d="M 0 0 
L 0 3.5 
" style="stroke: #000000; stroke-width: 0.8"/>
      </defs>
      <g>
       <use xlink:href="#m631a4198e7" x="46.539295" y="228.96" style="stroke: #000000; stroke-width: 0.8"/>
      </g>
     </g>
     <g id="text_1">
      <!-- Hokkaido -->
      <g transform="translate(49.29867 282.37875) rotate(-90) scale(0.1 -0.1)">
       <defs>
        <path id="DejaVuSans-48" d="M 628 4666 
L 1259 4666 
L 1259 2753 
L 3553 2753 
L 3553 4666 
L 4184 4666 
L 4184 0 
L 3553 0 
L 3553 2222 
L 1259 2222 
L 1259 0 
L 628 0 
L 628 4666 
z
" transform="scale(0.015625)"/>
        <path id="DejaVuSans-6f" d="M 1959 3097 
Q 1497 3097 1228 2736 
Q 959 2375 959 1747 
Q 959 1119 1226 758 
Q 1494 397 1959 397 
Q 2419 397 2687 759 
Q 2956 1122 2956 1747 
Q 2956 2369 2687 2733 
Q 2419 3097 1959 3097 
z
M 1959 3584 
Q 2709 3584 3137 3096 
Q 3566 2609 3566 1747 
Q 3566 888 3137 398 
Q 2709 -91 1959 -91 
Q 1206 -91 779 398 
Q 353 888 353 1747 
Q 353 2609 779 3096 
Q 1206 3584 1959 3584 
z
" transform="scale(0.015625)"/>
        <path id="DejaVuSans-6b" d="M 581 4863 
L 1159 4863 
L 1159 1991 
L 2875 3500 
L 3609 3500 
L 1753 1863 
L 3688 0 
L 2938 0 
L 1159 1709 
L 1159 0 
L 581 0 
L 581 4863 
z
" transform="scale(0.015625)"/>
        <path id="DejaVuSans-61" d="M 2194 1759 
Q 1497 1759 1228 1600 
Q 959 1441 959 1056 
Q 959 750 1161 570 
Q 1363 391 1709 391 
Q 2188 391 2477 730 
Q 2766 1069 2766 1631 
L 2766 1759 
L 2194 1759 
z
M 3341 1997 
L 3341 0 
L 2766 0 
L 2766 531 
Q 2569 213 2275 61 
Q 1981 -91 1556 -91 
Q 1019 -91 701 211 
Q 384 513 384 1019 
Q 384 1609 779 1909 
Q 1175 2209 1959 2209 
L 2766 2209 
L 2766 2266 
Q 2766 2663 2505 2880 
Q 2244 3097 1772 3097 
Q 1472 3097 1187 3025 
Q 903 2953 641 2809 
L 641 3341 
Q 956 3463 1253 3523 
Q 1550 3584 1831 3584 
Q 2591 3584 2966 3190 
Q 3341 2797 3341 1997 
z
" transform="scale(0.015625)"/>
        <path id="DejaVuSans-69" d="M 603 3500 
L 1178 3500 
L 1178 0 
L 603 0 
L 603 3500 
z
M 603 4863 
L 1178 4863 
L 1178 4134 
L 603 4134 
L 603 4863 
z
" transform="scale(0.015625)"/>
        <path id="DejaVuSans-64" d="M 2906 2969 
L 2906 4863 
L 3481 4863 
L 3481 0 
L 2906 0 
L 2906 525 
Q 2725 213 2448 61 
Q 2172 -91 1784 -91 
Q 1150 -91 751 415 
Q 353 922 353 1747 
Q 353 2572 751 3078 
Q 1150 3584 1784 3584 
Q 2172 3584 2448 3432 
Q 2725 3281 2906 2969 
z
M 947 1747 
Q 947 1113 1208 752 
Q 1469 391 1925 391 
Q 2381 391 2643 752 
Q 2906 1113 2906 1747 
Q 2906 2381 2643 2742 
Q 2381 3103 1925 3103 
Q 1469 3103 1208 2742 
Q 947 2381 947 1747 
z
" transform="scale(0.015625)"/>
       </defs>
       <use xlink:href="#DejaVuSans-48"/>
       <use xlink:href="#DejaVuSans-6f" x="75.195312"/>
       <use xlink:href="#DejaVuSans-6b" x="136.376953"/>
       <use xlink:href="#DejaVuSans-6b" x="194.287109"/>
       <use xlink:href="#DejaVuSans-61" x="250.447266"/>
       <use xlink:href="#DejaVuSans-69" x="311.726562"/>
       <use xlink:href="#DejaVuSans-64" x="339.509766"/>
       <use xlink:href="#DejaVuSans-6f" x="402.986328"/>
      </g>
     </g>
    </g>
    <g id="xtick_2">
     <g id="line2d_2">
      <g>
       <use xlink:href="#m631a4198e7" x="58.411636" y="228.96" style="stroke: #000000; stroke-width: 0.8"/>
      </g>
     </g>
     <g id="text_2">
      <!-- Aomori -->
      <g transform="translate(61.171011 271.492812) rotate(-90) scale(0.1 -0.1)">
       <defs>
        <path id="DejaVuSans-41" d="M 2188 4044 
L 1331 1722 
L 3047 1722 
L 2188 4044 
z
M 1831 4666 
L 2547 4666 
L 4325 0 
L 3669 0 
L 3244 1197 
L 1141 1197 
L 716 0 
L 50 0 
L 1831 4666 
z
" transform="scale(0.015625)"/>
        <path id="DejaVuSans-6d" d="M 3328 2828 
Q 3544 3216 3844 3400 
Q 4144 3584 4550 3584 
Q 5097 3584 5394 3201 
Q 5691 2819 5691 2113 
L 5691 0 
L 5113 0 
L 5113 2094 
Q 5113 2597 4934 2840 
Q 4756 3084 4391 3084 
Q 3944 3084 3684 2787 
Q 3425 2491 3425 1978 
L 3425 0 
L 2847 0 
L 2847 2094 
Q 2847 2600 2669 2842 
Q 2491 3084 2119 3084 
Q 1678 3084 1418 2786 
Q 1159 2488 1159 1978 
L 1159 0 
L 581 0 
L 581 3500 
L 1159 3500 
L 1159 2956 
Q 1356 3278 1631 3431 
Q 1906 3584 2284 3584 
Q 2666 3584 2933 3390 
Q 3200 3197 3328 2828 
z
" transform="scale(0.015625)"/>
        <path id="DejaVuSans-72" d="M 2631 2963 
Q 2534 3019 2420 3045 
Q 2306 3072 2169 3072 
Q 1681 3072 1420 2755 
Q 1159 2438 1159 1844 
L 1159 0 
L 581 0 
L 581 3500 
L 1159 3500 
L 1159 2956 
Q 1341 3275 1631 3429 
Q 1922 3584 2338 3584 
Q 2397 3584 2469 3576 
Q 2541 3569 2628 3553 
L 2631 2963 
z
" transform="scale(0.015625)"/>
       </defs>
       <use xlink:href="#DejaVuSans-41"/>
       <use xlink:href="#DejaVuSans-6f" x="66.658203"/>
       <use xlink:href="#DejaVuSans-6d" x="127.839844"/>
       <use xlink:href="#DejaVuSans-6f" x="225.251953"/>
       <use xlink:href="#DejaVuSans-72" x="286.433594"/>
       <use xlink:href="#DejaVuSans-69" x="327.546875"/>
      </g>
     </g>
    </g>
    <g id="xtick_3">
     <g id="line2d_3">
      <g>
       <use xlink:href="#m631a4198e7" x="70.283976" y="228.96" style="stroke: #000000; stroke-width: 0.8"/>
      </g>
     </g>
     <g id="text_3">
      <!-- Iwate -->
      <g transform="translate(73.043351 263.289688) rotate(-90) scale(0.1 -0.1)">
       <defs>
        <path id="DejaVuSans-49" d="M 628 4666 
L 1259 4666 
L 1259 0 
L 628 0 
L 628 4666 
z
" transform="scale(0.015625)"/>
        <path id="DejaVuSans-77" d="M 269 3500 
L 844 3500 
L 1563 769 
L 2278 3500 
L 2956 3500 
L 3675 769 
L 4391 3500 
L 4966 3500 
L 4050 0 
L 3372 0 
L 2619 2869 
L 1863 0 
L 1184 0 
L 269 3500 
z
" transform="scale(0.015625)"/>
        <path id="DejaVuSans-74" d="M 1172 4494 
L 1172 3500 
L 2356 3500 
L 2356 3053 
L 1172 3053 
L 1172 1153 
Q 1172 725 1289 603 
Q 1406 481 1766 481 
L 2356 481 
L 2356 0 
L 1766 0 
Q 1100 0 847 248 
Q 594 497 594 1153 
L 594 3053 
L 172 3053 
L 172 3500 
L 594 3500 
L 594 4494 
L 1172 4494 
z
" transform="scale(0.015625)"/>
        <path id="DejaVuSans-65" d="M 3597 1894 
L 3597 1613 
L 953 1613 
Q 991 1019 1311 708 
Q 1631 397 2203 397 
Q 2534 397 2845 478 
Q 3156 559 3463 722 
L 3463 178 
Q 3153 47 2828 -22 
Q 2503 -91 2169 -91 
Q 1331 -91 842 396 
Q 353 884 353 1716 
Q 353 2575 817 3079 
Q 1281 3584 2069 3584 
Q 2775 3584 3186 3129 
Q 3597 2675 3597 1894 
z
M 3022 2063 
Q 3016 2534 2758 2815 
Q 2500 3097 2075 3097 
Q 1594 3097 1305 2825 
Q 1016 2553 972 2059 
L 3022 2063 
z
" transform="scale(0.015625)"/>
       </defs>
       <use xlink:href="#DejaVuSans-49"/>
       <use xlink:href="#DejaVuSans-77" x="29.492188"/>
       <use xlink:href="#DejaVuSans-61" x="111.279297"/>
       <use xlink:href="#DejaVuSans-74" x="172.558594"/>
       <use xlink:href="#DejaVuSans-65" x="211.767578"/>
      </g>
     </g>
    </g>
    <g id="xtick_4">
     <g id="line2d_4">
      <g>
       <use xlink:href="#m631a4198e7" x="82.156316" y="228.96" style="stroke: #000000; stroke-width: 0.8"/>
      </g>
     </g>
     <g id="text_4">
      <!-- Miyagi -->
      <g transform="translate(84.915691 268.539687) rotate(-90) scale(0.1 -0.1)">
       <defs>
        <path id="DejaVuSans-4d" d="M 628 4666 
L 1569 4666 
L 2759 1491 
L 3956 4666 
L 4897 4666 
L 4897 0 
L 4281 0 
L 4281 4097 
L 3078 897 
L 2444 897 
L 1241 4097 
L 1241 0 
L 628 0 
L 628 4666 
z
" transform="scale(0.015625)"/>
        <path id="DejaVuSans-79" d="M 2059 -325 
Q 1816 -950 1584 -1140 
Q 1353 -1331 966 -1331 
L 506 -1331 
L 506 -850 
L 844 -850 
Q 1081 -850 1212 -737 
Q 1344 -625 1503 -206 
L 1606 56 
L 191 3500 
L 800 3500 
L 1894 763 
L 2988 3500 
L 3597 3500 
L 2059 -325 
z
" transform="scale(0.015625)"/>
        <path id="DejaVuSans-67" d="M 2906 1791 
Q 2906 2416 2648 2759 
Q 2391 3103 1925 3103 
Q 1463 3103 1205 2759 
Q 947 2416 947 1791 
Q 947 1169 1205 825 
Q 1463 481 1925 481 
Q 2391 481 2648 825 
Q 2906 1169 2906 1791 
z
M 3481 434 
Q 3481 -459 3084 -895 
Q 2688 -1331 1869 -1331 
Q 1566 -1331 1297 -1286 
Q 1028 -1241 775 -1147 
L 775 -588 
Q 1028 -725 1275 -790 
Q 1522 -856 1778 -856 
Q 2344 -856 2625 -561 
Q 2906 -266 2906 331 
L 2906 616 
Q 2728 306 2450 153 
Q 2172 0 1784 0 
Q 1141 0 747 490 
Q 353 981 353 1791 
Q 353 2603 747 3093 
Q 1141 3584 1784 3584 
Q 2172 3584 2450 3431 
Q 2728 3278 2906 2969 
L 2906 3500 
L 3481 3500 
L 3481 434 
z
" transform="scale(0.015625)"/>
       </defs>
       <use xlink:href="#DejaVuSans-4d"/>
       <use xlink:href="#DejaVuSans-69" x="86.279297"/>
       <use xlink:href="#DejaVuSans-79" x="114.0625"/>
       <use xlink:href="#DejaVuSans-61" x="173.242188"/>
       <use xlink:href="#DejaVuSans-67" x="234.521484"/>
       <use xlink:href="#DejaVuSans-69" x="297.998047"/>
      </g>
     </g>
    </g>
    <g id="xtick_5">
     <g id="line2d_5">
      <g>
       <use xlink:href="#m631a4198e7" x="94.028657" y="228.96" style="stroke: #000000; stroke-width: 0.8"/>
      </g>
     </g>
     <g id="text_5">
      <!-- Akita -->
      <g transform="translate(96.788032 261.417812) rotate(-90) scale(0.1 -0.1)">
       <use xlink:href="#DejaVuSans-41"/>
       <use xlink:href="#DejaVuSans-6b" x="68.408203"/>
       <use xlink:href="#DejaVuSans-69" x="126.318359"/>
       <use xlink:href="#DejaVuSans-74" x="154.101562"/>
       <use xlink:href="#DejaVuSans-61" x="193.310547"/>
      </g>
     </g>
    </g>
    <g id="xtick_6">
     <g id="line2d_6">
      <g>
       <use xlink:href="#m631a4198e7" x="105.900997" y="228.96" style="stroke: #000000; stroke-width: 0.8"/>
      </g>
     </g>
     <g id="text_6">
      <!-- Yamagata -->
      <g transform="translate(108.660372 285.214687) rotate(-90) scale(0.1 -0.1)">
       <defs>
        <path id="DejaVuSans-59" d="M -13 4666 
L 666 4666 
L 1959 2747 
L 3244 4666 
L 3922 4666 
L 2272 2222 
L 2272 0 
L 1638 0 
L 1638 2222 
L -13 4666 
z
" transform="scale(0.015625)"/>
       </defs>
       <use xlink:href="#DejaVuSans-59"/>
       <use xlink:href="#DejaVuSans-61" x="47.333984"/>
       <use xlink:href="#DejaVuSans-6d" x="108.613281"/>
       <use xlink:href="#DejaVuSans-61" x="206.025391"/>
       <use xlink:href="#DejaVuSans-67" x="267.304688"/>
       <use xlink:href="#DejaVuSans-61" x="330.78125"/>
       <use xlink:href="#DejaVuSans-74" x="392.060547"/>
       <use xlink:href="#DejaVuSans-61" x="431.269531"/>
      </g>
     </g>
    </g>
    <g id="xtick_7">
     <g id="line2d_7">
      <g>
       <use xlink:href="#m631a4198e7" x="117.773338" y="228.96" style="stroke: #000000; stroke-width: 0.8"/>
      </g>
     </g>
     <g id="text_7">
      <!-- Fukushima -->
      <g transform="translate(120.532713 289.508438) rotate(-90) scale(0.1 -0.1)">
       <defs>
        <path id="DejaVuSans-46" d="M 628 4666 
L 3309 4666 
L 3309 4134 
L 1259 4134 
L 1259 2759 
L 3109 2759 
L 3109 2228 
L 1259 2228 
L 1259 0 
L 628 0 
L 628 4666 
z
" transform="scale(0.015625)"/>
        <path id="DejaVuSans-75" d="M 544 1381 
L 544 3500 
L 1119 3500 
L 1119 1403 
Q 1119 906 1312 657 
Q 1506 409 1894 409 
Q 2359 409 2629 706 
Q 2900 1003 2900 1516 
L 2900 3500 
L 3475 3500 
L 3475 0 
L 2900 0 
L 2900 538 
Q 2691 219 2414 64 
Q 2138 -91 1772 -91 
Q 1169 -91 856 284 
Q 544 659 544 1381 
z
M 1991 3584 
L 1991 3584 
z
" transform="scale(0.015625)"/>
        <path id="DejaVuSans-73" d="M 2834 3397 
L 2834 2853 
Q 2591 2978 2328 3040 
Q 2066 3103 1784 3103 
Q 1356 3103 1142 2972 
Q 928 2841 928 2578 
Q 928 2378 1081 2264 
Q 1234 2150 1697 2047 
L 1894 2003 
Q 2506 1872 2764 1633 
Q 3022 1394 3022 966 
Q 3022 478 2636 193 
Q 2250 -91 1575 -91 
Q 1294 -91 989 -36 
Q 684 19 347 128 
L 347 722 
Q 666 556 975 473 
Q 1284 391 1588 391 
Q 1994 391 2212 530 
Q 2431 669 2431 922 
Q 2431 1156 2273 1281 
Q 2116 1406 1581 1522 
L 1381 1569 
Q 847 1681 609 1914 
Q 372 2147 372 2553 
Q 372 3047 722 3315 
Q 1072 3584 1716 3584 
Q 2034 3584 2315 3537 
Q 2597 3491 2834 3397 
z
" transform="scale(0.015625)"/>
        <path id="DejaVuSans-68" d="M 3513 2113 
L 3513 0 
L 2938 0 
L 2938 2094 
Q 2938 2591 2744 2837 
Q 2550 3084 2163 3084 
Q 1697 3084 1428 2787 
Q 1159 2491 1159 1978 
L 1159 0 
L 581 0 
L 581 4863 
L 1159 4863 
L 1159 2956 
Q 1366 3272 1645 3428 
Q 1925 3584 2291 3584 
Q 2894 3584 3203 3211 
Q 3513 2838 3513 2113 
z
" transform="scale(0.015625)"/>
       </defs>
       <use xlink:href="#DejaVuSans-46"/>
       <use xlink:href="#DejaVuSans-75" x="52.019531"/>
       <use xlink:href="#DejaVuSans-6b" x="115.398438"/>
       <use xlink:href="#DejaVuSans-75" x="170.183594"/>
       <use xlink:href="#DejaVuSans-73" x="233.5625"/>
       <use xlink:href="#DejaVuSans-68" x="285.662109"/>
       <use xlink:href="#DejaVuSans-69" x="349.041016"/>
       <use xlink:href="#DejaVuSans-6d" x="376.824219"/>
       <use xlink:href="#DejaVuSans-61" x="474.236328"/>
      </g>
     </g>
    </g>
    <g id="xtick_8">
     <g id="line2d_8">
      <g>
       <use xlink:href="#m631a4198e7" x="129.645678" y="228.96" style="stroke: #000000; stroke-width: 0.8"/>
      </g>
     </g>
     <g id="text_8">
      <!-- Ibaraki -->
      <g transform="translate(132.405053 270.194375) rotate(-90) scale(0.1 -0.1)">
       <defs>
        <path id="DejaVuSans-62" d="M 3116 1747 
Q 3116 2381 2855 2742 
Q 2594 3103 2138 3103 
Q 1681 3103 1420 2742 
Q 1159 2381 1159 1747 
Q 1159 1113 1420 752 
Q 1681 391 2138 391 
Q 2594 391 2855 752 
Q 3116 1113 3116 1747 
z
M 1159 2969 
Q 1341 3281 1617 3432 
Q 1894 3584 2278 3584 
Q 2916 3584 3314 3078 
Q 3713 2572 3713 1747 
Q 3713 922 3314 415 
Q 2916 -91 2278 -91 
Q 1894 -91 1617 61 
Q 1341 213 1159 525 
L 1159 0 
L 581 0 
L 581 4863 
L 1159 4863 
L 1159 2969 
z
" transform="scale(0.015625)"/>
       </defs>
       <use xlink:href="#DejaVuSans-49"/>
       <use xlink:href="#DejaVuSans-62" x="29.492188"/>
       <use xlink:href="#DejaVuSans-61" x="92.96875"/>
       <use xlink:href="#DejaVuSans-72" x="154.248047"/>
       <use xlink:href="#DejaVuSans-61" x="195.361328"/>
       <use xlink:href="#DejaVuSans-6b" x="256.640625"/>
       <use xlink:href="#DejaVuSans-69" x="314.550781"/>
      </g>
     </g>
    </g>
    <g id="xtick_9">
     <g id="line2d_9">
      <g>
       <use xlink:href="#m631a4198e7" x="141.518019" y="228.96" style="stroke: #000000; stroke-width: 0.8"/>
      </g>
     </g>
     <g id="text_9">
      <!-- Tochigi -->
      <g transform="translate(144.277394 270.227187) rotate(-90) scale(0.1 -0.1)">
       <defs>
        <path id="DejaVuSans-54" d="M -19 4666 
L 3928 4666 
L 3928 4134 
L 2272 4134 
L 2272 0 
L 1638 0 
L 1638 4134 
L -19 4134 
L -19 4666 
z
" transform="scale(0.015625)"/>
        <path id="DejaVuSans-63" d="M 3122 3366 
L 3122 2828 
Q 2878 2963 2633 3030 
Q 2388 3097 2138 3097 
Q 1578 3097 1268 2742 
Q 959 2388 959 1747 
Q 959 1106 1268 751 
Q 1578 397 2138 397 
Q 2388 397 2633 464 
Q 2878 531 3122 666 
L 3122 134 
Q 2881 22 2623 -34 
Q 2366 -91 2075 -91 
Q 1284 -91 818 406 
Q 353 903 353 1747 
Q 353 2603 823 3093 
Q 1294 3584 2113 3584 
Q 2378 3584 2631 3529 
Q 2884 3475 3122 3366 
z
" transform="scale(0.015625)"/>
       </defs>
       <use xlink:href="#DejaVuSans-54"/>
       <use xlink:href="#DejaVuSans-6f" x="44.083984"/>
       <use xlink:href="#DejaVuSans-63" x="105.265625"/>
       <use xlink:href="#DejaVuSans-68" x="160.246094"/>
       <use xlink:href="#DejaVuSans-69" x="223.625"/>
       <use xlink:href="#DejaVuSans-67" x="251.408203"/>
       <use xlink:href="#DejaVuSans-69" x="314.884766"/>
      </g>
     </g>
    </g>
    <g id="xtick_10">
     <g id="line2d_10">
      <g>
       <use xlink:href="#m631a4198e7" x="153.390359" y="228.96" style="stroke: #000000; stroke-width: 0.8"/>
      </g>
     </g>
     <g id="text_10">
      <!-- Gunma -->
      <g transform="translate(156.149734 272.252187) rotate(-90) scale(0.1 -0.1)">
       <defs>
        <path id="DejaVuSans-47" d="M 3809 666 
L 3809 1919 
L 2778 1919 
L 2778 2438 
L 4434 2438 
L 4434 434 
Q 4069 175 3628 42 
Q 3188 -91 2688 -91 
Q 1594 -91 976 548 
Q 359 1188 359 2328 
Q 359 3472 976 4111 
Q 1594 4750 2688 4750 
Q 3144 4750 3555 4637 
Q 3966 4525 4313 4306 
L 4313 3634 
Q 3963 3931 3569 4081 
Q 3175 4231 2741 4231 
Q 1884 4231 1454 3753 
Q 1025 3275 1025 2328 
Q 1025 1384 1454 906 
Q 1884 428 2741 428 
Q 3075 428 3337 486 
Q 3600 544 3809 666 
z
" transform="scale(0.015625)"/>
        <path id="DejaVuSans-6e" d="M 3513 2113 
L 3513 0 
L 2938 0 
L 2938 2094 
Q 2938 2591 2744 2837 
Q 2550 3084 2163 3084 
Q 1697 3084 1428 2787 
Q 1159 2491 1159 1978 
L 1159 0 
L 581 0 
L 581 3500 
L 1159 3500 
L 1159 2956 
Q 1366 3272 1645 3428 
Q 1925 3584 2291 3584 
Q 2894 3584 3203 3211 
Q 3513 2838 3513 2113 
z
" transform="scale(0.015625)"/>
       </defs>
       <use xlink:href="#DejaVuSans-47"/>
       <use xlink:href="#DejaVuSans-75" x="77.490234"/>
       <use xlink:href="#DejaVuSans-6e" x="140.869141"/>
       <use xlink:href="#DejaVuSans-6d" x="204.248047"/>
       <use xlink:href="#DejaVuSans-61" x="301.660156"/>
      </g>
     </g>
    </g>
    <g id="xtick_11">
     <g id="line2d_11">
      <g>
       <use xlink:href="#m631a4198e7" x="165.262699" y="228.96" style="stroke: #000000; stroke-width: 0.8"/>
      </g>
     </g>
     <g id="text_11">
      <!-- Saitama -->
      <g transform="translate(168.022074 277.131875) rotate(-90) scale(0.1 -0.1)">
       <defs>
        <path id="DejaVuSans-53" d="M 3425 4513 
L 3425 3897 
Q 3066 4069 2747 4153 
Q 2428 4238 2131 4238 
Q 1616 4238 1336 4038 
Q 1056 3838 1056 3469 
Q 1056 3159 1242 3001 
Q 1428 2844 1947 2747 
L 2328 2669 
Q 3034 2534 3370 2195 
Q 3706 1856 3706 1288 
Q 3706 609 3251 259 
Q 2797 -91 1919 -91 
Q 1588 -91 1214 -16 
Q 841 59 441 206 
L 441 856 
Q 825 641 1194 531 
Q 1563 422 1919 422 
Q 2459 422 2753 634 
Q 3047 847 3047 1241 
Q 3047 1584 2836 1778 
Q 2625 1972 2144 2069 
L 1759 2144 
Q 1053 2284 737 2584 
Q 422 2884 422 3419 
Q 422 4038 858 4394 
Q 1294 4750 2059 4750 
Q 2388 4750 2728 4690 
Q 3069 4631 3425 4513 
z
" transform="scale(0.015625)"/>
       </defs>
       <use xlink:href="#DejaVuSans-53"/>
       <use xlink:href="#DejaVuSans-61" x="63.476562"/>
       <use xlink:href="#DejaVuSans-69" x="124.755859"/>
       <use xlink:href="#DejaVuSans-74" x="152.539062"/>
       <use xlink:href="#DejaVuSans-61" x="191.748047"/>
       <use xlink:href="#DejaVuSans-6d" x="253.027344"/>
       <use xlink:href="#DejaVuSans-61" x="350.439453"/>
      </g>
     </g>
    </g>
    <g id="xtick_12">
     <g id="line2d_12">
      <g>
       <use xlink:href="#m631a4198e7" x="177.13504" y="228.96" style="stroke: #000000; stroke-width: 0.8"/>
      </g>
     </g>
     <g id="text_12">
      <!-- Chiba -->
      <g transform="translate(179.894415 264.535) rotate(-90) scale(0.1 -0.1)">
       <defs>
        <path id="DejaVuSans-43" d="M 4122 4306 
L 4122 3641 
Q 3803 3938 3442 4084 
Q 3081 4231 2675 4231 
Q 1875 4231 1450 3742 
Q 1025 3253 1025 2328 
Q 1025 1406 1450 917 
Q 1875 428 2675 428 
Q 3081 428 3442 575 
Q 3803 722 4122 1019 
L 4122 359 
Q 3791 134 3420 21 
Q 3050 -91 2638 -91 
Q 1578 -91 968 557 
Q 359 1206 359 2328 
Q 359 3453 968 4101 
Q 1578 4750 2638 4750 
Q 3056 4750 3426 4639 
Q 3797 4528 4122 4306 
z
" transform="scale(0.015625)"/>
       </defs>
       <use xlink:href="#DejaVuSans-43"/>
       <use xlink:href="#DejaVuSans-68" x="69.824219"/>
       <use xlink:href="#DejaVuSans-69" x="133.203125"/>
       <use xlink:href="#DejaVuSans-62" x="160.986328"/>
       <use xlink:href="#DejaVuSans-61" x="224.462891"/>
      </g>
     </g>
    </g>
    <g id="xtick_13">
     <g id="line2d_13">
      <g>
       <use xlink:href="#m631a4198e7" x="189.00738" y="228.96" style="stroke: #000000; stroke-width: 0.8"/>
      </g>
     </g>
     <g id="text_13">
      <!-- Tokyo -->
      <g transform="translate(191.766755 263.952187) rotate(-90) scale(0.1 -0.1)">
       <use xlink:href="#DejaVuSans-54"/>
       <use xlink:href="#DejaVuSans-6f" x="44.083984"/>
       <use xlink:href="#DejaVuSans-6b" x="105.265625"/>
       <use xlink:href="#DejaVuSans-79" x="159.550781"/>
       <use xlink:href="#DejaVuSans-6f" x="218.730469"/>
      </g>
     </g>
    </g>
    <g id="xtick_14">
     <g id="line2d_14">
      <g>
       <use xlink:href="#m631a4198e7" x="200.879721" y="228.96" style="stroke: #000000; stroke-width: 0.8"/>
      </g>
     </g>
     <g id="text_14">
      <!-- Kanagawa -->
      <g transform="translate(203.639096 287.719375) rotate(-90) scale(0.1 -0.1)">
       <defs>
        <path id="DejaVuSans-4b" d="M 628 4666 
L 1259 4666 
L 1259 2694 
L 3353 4666 
L 4166 4666 
L 1850 2491 
L 4331 0 
L 3500 0 
L 1259 2247 
L 1259 0 
L 628 0 
L 628 4666 
z
" transform="scale(0.015625)"/>
       </defs>
       <use xlink:href="#DejaVuSans-4b"/>
       <use xlink:href="#DejaVuSans-61" x="63.826172"/>
       <use xlink:href="#DejaVuSans-6e" x="125.105469"/>
       <use xlink:href="#DejaVuSans-61" x="188.484375"/>
       <use xlink:href="#DejaVuSans-67" x="249.763672"/>
       <use xlink:href="#DejaVuSans-61" x="313.240234"/>
       <use xlink:href="#DejaVuSans-77" x="374.519531"/>
       <use xlink:href="#DejaVuSans-61" x="456.306641"/>
      </g>
     </g>
    </g>
    <g id="xtick_15">
     <g id="line2d_15">
      <g>
       <use xlink:href="#m631a4198e7" x="212.752061" y="228.96" style="stroke: #000000; stroke-width: 0.8"/>
      </g>
     </g>
     <g id="text_15">
      <!-- Niigata -->
      <g transform="translate(215.511436 271.5225) rotate(-90) scale(0.1 -0.1)">
       <defs>
        <path id="DejaVuSans-4e" d="M 628 4666 
L 1478 4666 
L 3547 763 
L 3547 4666 
L 4159 4666 
L 4159 0 
L 3309 0 
L 1241 3903 
L 1241 0 
L 628 0 
L 628 4666 
z
" transform="scale(0.015625)"/>
       </defs>
       <use xlink:href="#DejaVuSans-4e"/>
       <use xlink:href="#DejaVuSans-69" x="74.804688"/>
       <use xlink:href="#DejaVuSans-69" x="102.587891"/>
       <use xlink:href="#DejaVuSans-67" x="130.371094"/>
       <use xlink:href="#DejaVuSans-61" x="193.847656"/>
       <use xlink:href="#DejaVuSans-74" x="255.126953"/>
       <use xlink:href="#DejaVuSans-61" x="294.335938"/>
      </g>
     </g>
    </g>
    <g id="xtick_16">
     <g id="line2d_16">
      <g>
       <use xlink:href="#m631a4198e7" x="224.624402" y="228.96" style="stroke: #000000; stroke-width: 0.8"/>
      </g>
     </g>
     <g id="text_16">
      <!-- Toyama -->
      <g transform="translate(227.383777 274.402187) rotate(-90) scale(0.1 -0.1)">
       <use xlink:href="#DejaVuSans-54"/>
       <use xlink:href="#DejaVuSans-6f" x="44.083984"/>
       <use xlink:href="#DejaVuSans-79" x="105.265625"/>
       <use xlink:href="#DejaVuSans-61" x="164.445312"/>
       <use xlink:href="#DejaVuSans-6d" x="225.724609"/>
       <use xlink:href="#DejaVuSans-61" x="323.136719"/>
      </g>
     </g>
    </g>
    <g id="xtick_17">
     <g id="line2d_17">
      <g>
       <use xlink:href="#m631a4198e7" x="236.496742" y="228.96" style="stroke: #000000; stroke-width: 0.8"/>
      </g>
     </g>
     <g id="text_17">
      <!-- Ishikawa -->
      <g transform="translate(239.256117 279.285) rotate(-90) scale(0.1 -0.1)">
       <use xlink:href="#DejaVuSans-49"/>
       <use xlink:href="#DejaVuSans-73" x="29.492188"/>
       <use xlink:href="#DejaVuSans-68" x="81.591797"/>
       <use xlink:href="#DejaVuSans-69" x="144.970703"/>
       <use xlink:href="#DejaVuSans-6b" x="172.753906"/>
       <use xlink:href="#DejaVuSans-61" x="228.914062"/>
       <use xlink:href="#DejaVuSans-77" x="290.193359"/>
       <use xlink:href="#DejaVuSans-61" x="371.980469"/>
      </g>
     </g>
    </g>
    <g id="xtick_18">
     <g id="line2d_18">
      <g>
       <use xlink:href="#m631a4198e7" x="248.369082" y="228.96" style="stroke: #000000; stroke-width: 0.8"/>
      </g>
     </g>
     <g id="text_18">
      <!-- Fukui -->
      <g transform="translate(251.128457 262.092812) rotate(-90) scale(0.1 -0.1)">
       <use xlink:href="#DejaVuSans-46"/>
       <use xlink:href="#DejaVuSans-75" x="52.019531"/>
       <use xlink:href="#DejaVuSans-6b" x="115.398438"/>
       <use xlink:href="#DejaVuSans-75" x="170.183594"/>
       <use xlink:href="#DejaVuSans-69" x="233.5625"/>
      </g>
     </g>
    </g>
    <g id="xtick_19">
     <g id="line2d_19">
      <g>
       <use xlink:href="#m631a4198e7" x="260.241423" y="228.96" style="stroke: #000000; stroke-width: 0.8"/>
      </g>
     </g>
     <g id="text_19">
      <!-- Yamanashi -->
      <g transform="translate(263.000798 289.480312) rotate(-90) scale(0.1 -0.1)">
       <use xlink:href="#DejaVuSans-59"/>
       <use xlink:href="#DejaVuSans-61" x="47.333984"/>
       <use xlink:href="#DejaVuSans-6d" x="108.613281"/>
       <use xlink:href="#DejaVuSans-61" x="206.025391"/>
       <use xlink:href="#DejaVuSans-6e" x="267.304688"/>
       <use xlink:href="#DejaVuSans-61" x="330.683594"/>
       <use xlink:href="#DejaVuSans-73" x="391.962891"/>
       <use xlink:href="#DejaVuSans-68" x="444.0625"/>
       <use xlink:href="#DejaVuSans-69" x="507.441406"/>
      </g>
     </g>
    </g>
    <g id="xtick_20">
     <g id="line2d_20">
      <g>
       <use xlink:href="#m631a4198e7" x="272.113763" y="228.96" style="stroke: #000000; stroke-width: 0.8"/>
      </g>
     </g>
     <g id="text_20">
      <!-- Nagano -->
      <g transform="translate(274.873138 274.502187) rotate(-90) scale(0.1 -0.1)">
       <use xlink:href="#DejaVuSans-4e"/>
       <use xlink:href="#DejaVuSans-61" x="74.804688"/>
       <use xlink:href="#DejaVuSans-67" x="136.083984"/>
       <use xlink:href="#DejaVuSans-61" x="199.560547"/>
       <use xlink:href="#DejaVuSans-6e" x="260.839844"/>
       <use xlink:href="#DejaVuSans-6f" x="324.21875"/>
      </g>
     </g>
    </g>
    <g id="xtick_21">
     <g id="line2d_21">
      <g>
       <use xlink:href="#m631a4198e7" x="283.986104" y="228.96" style="stroke: #000000; stroke-width: 0.8"/>
      </g>
     </g>
     <g id="text_21">
      <!-- Gifu -->
      <g transform="translate(286.745479 256.344375) rotate(-90) scale(0.1 -0.1)">
       <defs>
        <path id="DejaVuSans-66" d="M 2375 4863 
L 2375 4384 
L 1825 4384 
Q 1516 4384 1395 4259 
Q 1275 4134 1275 3809 
L 1275 3500 
L 2222 3500 
L 2222 3053 
L 1275 3053 
L 1275 0 
L 697 0 
L 697 3053 
L 147 3053 
L 147 3500 
L 697 3500 
L 697 3744 
Q 697 4328 969 4595 
Q 1241 4863 1831 4863 
L 2375 4863 
z
" transform="scale(0.015625)"/>
       </defs>
       <use xlink:href="#DejaVuSans-47"/>
       <use xlink:href="#DejaVuSans-69" x="77.490234"/>
       <use xlink:href="#DejaVuSans-66" x="105.273438"/>
       <use xlink:href="#DejaVuSans-75" x="140.478516"/>
      </g>
     </g>
    </g>
    <g id="xtick_22">
     <g id="line2d_22">
      <g>
       <use xlink:href="#m631a4198e7" x="295.858444" y="228.96" style="stroke: #000000; stroke-width: 0.8"/>
      </g>
     </g>
     <g id="text_22">
      <!-- Shizuoka -->
      <g transform="translate(298.617819 280.8725) rotate(-90) scale(0.1 -0.1)">
       <defs>
        <path id="DejaVuSans-7a" d="M 353 3500 
L 3084 3500 
L 3084 2975 
L 922 459 
L 3084 459 
L 3084 0 
L 275 0 
L 275 525 
L 2438 3041 
L 353 3041 
L 353 3500 
z
" transform="scale(0.015625)"/>
       </defs>
       <use xlink:href="#DejaVuSans-53"/>
       <use xlink:href="#DejaVuSans-68" x="63.476562"/>
       <use xlink:href="#DejaVuSans-69" x="126.855469"/>
       <use xlink:href="#DejaVuSans-7a" x="154.638672"/>
       <use xlink:href="#DejaVuSans-75" x="207.128906"/>
       <use xlink:href="#DejaVuSans-6f" x="270.507812"/>
       <use xlink:href="#DejaVuSans-6b" x="331.689453"/>
       <use xlink:href="#DejaVuSans-61" x="387.849609"/>
      </g>
     </g>
    </g>
    <g id="xtick_23">
     <g id="line2d_23">
      <g>
       <use xlink:href="#m631a4198e7" x="307.730785" y="228.96" style="stroke: #000000; stroke-width: 0.8"/>
      </g>
     </g>
     <g id="text_23">
      <!-- Aichi -->
      <g transform="translate(310.49016 260.192813) rotate(-90) scale(0.1 -0.1)">
       <use xlink:href="#DejaVuSans-41"/>
       <use xlink:href="#DejaVuSans-69" x="68.408203"/>
       <use xlink:href="#DejaVuSans-63" x="96.191406"/>
       <use xlink:href="#DejaVuSans-68" x="151.171875"/>
       <use xlink:href="#DejaVuSans-69" x="214.550781"/>
      </g>
     </g>
    </g>
    <g id="xtick_24">
     <g id="line2d_24">
      <g>
       <use xlink:href="#m631a4198e7" x="319.603125" y="228.96" style="stroke: #000000; stroke-width: 0.8"/>
      </g>
     </g>
     <g id="text_24">
      <!-- Mie -->
      <g transform="translate(322.3625 253.519375) rotate(-90) scale(0.1 -0.1)">
       <use xlink:href="#DejaVuSans-4d"/>
       <use xlink:href="#DejaVuSans-69" x="86.279297"/>
       <use xlink:href="#DejaVuSans-65" x="114.0625"/>
      </g>
     </g>
    </g>
    <g id="xtick_25">
     <g id="line2d_25">
      <g>
       <use xlink:href="#m631a4198e7" x="331.475465" y="228.96" style="stroke: #000000; stroke-width: 0.8"/>
      </g>
     </g>
     <g id="text_25">
      <!-- Shiga -->
      <g transform="translate(334.23484 263.900625) rotate(-90) scale(0.1 -0.1)">
       <use xlink:href="#DejaVuSans-53"/>
       <use xlink:href="#DejaVuSans-68" x="63.476562"/>
       <use xlink:href="#DejaVuSans-69" x="126.855469"/>
       <use xlink:href="#DejaVuSans-67" x="154.638672"/>
       <use xlink:href="#DejaVuSans-61" x="218.115234"/>
      </g>
     </g>
    </g>
    <g id="xtick_26">
     <g id="line2d_26">
      <g>
       <use xlink:href="#m631a4198e7" x="343.347806" y="228.96" style="stroke: #000000; stroke-width: 0.8"/>
      </g>
     </g>
     <g id="text_26">
      <!-- Kyoto -->
      <g transform="translate(346.107181 263.869375) rotate(-90) scale(0.1 -0.1)">
       <use xlink:href="#DejaVuSans-4b"/>
       <use xlink:href="#DejaVuSans-79" x="58.326172"/>
       <use xlink:href="#DejaVuSans-6f" x="117.505859"/>
       <use xlink:href="#DejaVuSans-74" x="178.6875"/>
       <use xlink:href="#DejaVuSans-6f" x="217.896484"/>
      </g>
     </g>
    </g>
    <g id="xtick_27">
     <g id="line2d_27">
      <g>
       <use xlink:href="#m631a4198e7" x="355.220146" y="228.96" style="stroke: #000000; stroke-width: 0.8"/>
      </g>
     </g>
     <g id="text_27">
      <!-- Osaka -->
      <g transform="translate(357.979521 266.913125) rotate(-90) scale(0.1 -0.1)">
       <defs>
        <path id="DejaVuSans-4f" d="M 2522 4238 
Q 1834 4238 1429 3725 
Q 1025 3213 1025 2328 
Q 1025 1447 1429 934 
Q 1834 422 2522 422 
Q 3209 422 3611 934 
Q 4013 1447 4013 2328 
Q 4013 3213 3611 3725 
Q 3209 4238 2522 4238 
z
M 2522 4750 
Q 3503 4750 4090 4092 
Q 4678 3434 4678 2328 
Q 4678 1225 4090 567 
Q 3503 -91 2522 -91 
Q 1538 -91 948 565 
Q 359 1222 359 2328 
Q 359 3434 948 4092 
Q 1538 4750 2522 4750 
z
" transform="scale(0.015625)"/>
       </defs>
       <use xlink:href="#DejaVuSans-4f"/>
       <use xlink:href="#DejaVuSans-73" x="78.710938"/>
       <use xlink:href="#DejaVuSans-61" x="130.810547"/>
       <use xlink:href="#DejaVuSans-6b" x="192.089844"/>
       <use xlink:href="#DejaVuSans-61" x="248.25"/>
      </g>
     </g>
    </g>
    <g id="xtick_28">
     <g id="line2d_28">
      <g>
       <use xlink:href="#m631a4198e7" x="367.092487" y="228.96" style="stroke: #000000; stroke-width: 0.8"/>
      </g>
     </g>
     <g id="text_28">
      <!-- Hyogo -->
      <g transform="translate(369.851862 267.985) rotate(-90) scale(0.1 -0.1)">
       <use xlink:href="#DejaVuSans-48"/>
       <use xlink:href="#DejaVuSans-79" x="75.195312"/>
       <use xlink:href="#DejaVuSans-6f" x="134.375"/>
       <use xlink:href="#DejaVuSans-67" x="195.556641"/>
       <use xlink:href="#DejaVuSans-6f" x="259.033203"/>
      </g>
     </g>
    </g>
    <g id="xtick_29">
     <g id="line2d_29">
      <g>
       <use xlink:href="#m631a4198e7" x="378.964827" y="228.96" style="stroke: #000000; stroke-width: 0.8"/>
      </g>
     </g>
     <g id="text_29">
      <!-- Nara -->
      <g transform="translate(381.724202 259.808437) rotate(-90) scale(0.1 -0.1)">
       <use xlink:href="#DejaVuSans-4e"/>
       <use xlink:href="#DejaVuSans-61" x="74.804688"/>
       <use xlink:href="#DejaVuSans-72" x="136.083984"/>
       <use xlink:href="#DejaVuSans-61" x="177.197266"/>
      </g>
     </g>
    </g>
    <g id="xtick_30">
     <g id="line2d_30">
      <g>
       <use xlink:href="#m631a4198e7" x="390.837168" y="228.96" style="stroke: #000000; stroke-width: 0.8"/>
      </g>
     </g>
     <g id="text_30">
      <!-- Wakayama -->
      <g transform="translate(393.596543 290.9975) rotate(-90) scale(0.1 -0.1)">
       <defs>
        <path id="DejaVuSans-57" d="M 213 4666 
L 850 4666 
L 1831 722 
L 2809 4666 
L 3519 4666 
L 4500 722 
L 5478 4666 
L 6119 4666 
L 4947 0 
L 4153 0 
L 3169 4050 
L 2175 0 
L 1381 0 
L 213 4666 
z
" transform="scale(0.015625)"/>
       </defs>
       <use xlink:href="#DejaVuSans-57"/>
       <use xlink:href="#DejaVuSans-61" x="92.501953"/>
       <use xlink:href="#DejaVuSans-6b" x="153.78125"/>
       <use xlink:href="#DejaVuSans-61" x="209.941406"/>
       <use xlink:href="#DejaVuSans-79" x="271.220703"/>
       <use xlink:href="#DejaVuSans-61" x="330.400391"/>
       <use xlink:href="#DejaVuSans-6d" x="391.679688"/>
       <use xlink:href="#DejaVuSans-61" x="489.091797"/>
      </g>
     </g>
    </g>
    <g id="xtick_31">
     <g id="line2d_31">
      <g>
       <use xlink:href="#m631a4198e7" x="402.709508" y="228.96" style="stroke: #000000; stroke-width: 0.8"/>
      </g>
     </g>
     <g id="text_31">
      <!-- Tottori -->
      <g transform="translate(405.468883 267.335) rotate(-90) scale(0.1 -0.1)">
       <use xlink:href="#DejaVuSans-54"/>
       <use xlink:href="#DejaVuSans-6f" x="44.083984"/>
       <use xlink:href="#DejaVuSans-74" x="105.265625"/>
       <use xlink:href="#DejaVuSans-74" x="144.474609"/>
       <use xlink:href="#DejaVuSans-6f" x="183.683594"/>
       <use xlink:href="#DejaVuSans-72" x="244.865234"/>
       <use xlink:href="#DejaVuSans-69" x="285.978516"/>
      </g>
     </g>
    </g>
    <g id="xtick_32">
     <g id="line2d_32">
      <g>
       <use xlink:href="#m631a4198e7" x="414.581848" y="228.96" style="stroke: #000000; stroke-width: 0.8"/>
      </g>
     </g>
     <g id="text_32">
      <!-- Shimane -->
      <g transform="translate(417.341223 279.783437) rotate(-90) scale(0.1 -0.1)">
       <use xlink:href="#DejaVuSans-53"/>
       <use xlink:href="#DejaVuSans-68" x="63.476562"/>
       <use xlink:href="#DejaVuSans-69" x="126.855469"/>
       <use xlink:href="#DejaVuSans-6d" x="154.638672"/>
       <use xlink:href="#DejaVuSans-61" x="252.050781"/>
       <use xlink:href="#DejaVuSans-6e" x="313.330078"/>
       <use xlink:href="#DejaVuSans-65" x="376.708984"/>
      </g>
     </g>
    </g>
    <g id="xtick_33">
     <g id="line2d_33">
      <g>
       <use xlink:href="#m631a4198e7" x="426.454189" y="228.96" style="stroke: #000000; stroke-width: 0.8"/>
      </g>
     </g>
     <g id="text_33">
      <!-- Okayama -->
      <g transform="translate(429.213564 283.49125) rotate(-90) scale(0.1 -0.1)">
       <use xlink:href="#DejaVuSans-4f"/>
       <use xlink:href="#DejaVuSans-6b" x="78.710938"/>
       <use xlink:href="#DejaVuSans-61" x="134.871094"/>
       <use xlink:href="#DejaVuSans-79" x="196.150391"/>
       <use xlink:href="#DejaVuSans-61" x="255.330078"/>
       <use xlink:href="#DejaVuSans-6d" x="316.609375"/>
       <use xlink:href="#DejaVuSans-61" x="414.021484"/>
      </g>
     </g>
    </g>
    <g id="xtick_34">
     <g id="line2d_34">
      <g>
       <use xlink:href="#m631a4198e7" x="438.326529" y="228.96" style="stroke: #000000; stroke-width: 0.8"/>
      </g>
     </g>
     <g id="text_34">
      <!-- Hiroshima -->
      <g transform="translate(441.085904 286.456875) rotate(-90) scale(0.1 -0.1)">
       <use xlink:href="#DejaVuSans-48"/>
       <use xlink:href="#DejaVuSans-69" x="75.195312"/>
       <use xlink:href="#DejaVuSans-72" x="102.978516"/>
       <use xlink:href="#DejaVuSans-6f" x="141.841797"/>
       <use xlink:href="#DejaVuSans-73" x="203.023438"/>
       <use xlink:href="#DejaVuSans-68" x="255.123047"/>
       <use xlink:href="#DejaVuSans-69" x="318.501953"/>
       <use xlink:href="#DejaVuSans-6d" x="346.285156"/>
       <use xlink:href="#DejaVuSans-61" x="443.697266"/>
      </g>
     </g>
    </g>
    <g id="xtick_35">
     <g id="line2d_35">
      <g>
       <use xlink:href="#m631a4198e7" x="450.19887" y="228.96" style="stroke: #000000; stroke-width: 0.8"/>
      </g>
     </g>
     <g id="text_35">
      <!-- Yamaguchi -->
      <g transform="translate(452.958245 289.989688) rotate(-90) scale(0.1 -0.1)">
       <use xlink:href="#DejaVuSans-59"/>
       <use xlink:href="#DejaVuSans-61" x="47.333984"/>
       <use xlink:href="#DejaVuSans-6d" x="108.613281"/>
       <use xlink:href="#DejaVuSans-61" x="206.025391"/>
       <use xlink:href="#DejaVuSans-67" x="267.304688"/>
       <use xlink:href="#DejaVuSans-75" x="330.78125"/>
       <use xlink:href="#DejaVuSans-63" x="394.160156"/>
       <use xlink:href="#DejaVuSans-68" x="449.140625"/>
       <use xlink:href="#DejaVuSans-69" x="512.519531"/>
      </g>
     </g>
    </g>
    <g id="xtick_36">
     <g id="line2d_36">
      <g>
       <use xlink:href="#m631a4198e7" x="462.07121" y="228.96" style="stroke: #000000; stroke-width: 0.8"/>
      </g>
     </g>
     <g id="text_36">
      <!-- Tokushima -->
      <g transform="translate(464.830585 288.495937) rotate(-90) scale(0.1 -0.1)">
       <use xlink:href="#DejaVuSans-54"/>
       <use xlink:href="#DejaVuSans-6f" x="44.083984"/>
       <use xlink:href="#DejaVuSans-6b" x="105.265625"/>
       <use xlink:href="#DejaVuSans-75" x="160.050781"/>
       <use xlink:href="#DejaVuSans-73" x="223.429688"/>
       <use xlink:href="#DejaVuSans-68" x="275.529297"/>
       <use xlink:href="#DejaVuSans-69" x="338.908203"/>
       <use xlink:href="#DejaVuSans-6d" x="366.691406"/>
       <use xlink:href="#DejaVuSans-61" x="464.103516"/>
      </g>
     </g>
    </g>
    <g id="xtick_37">
     <g id="line2d_37">
      <g>
       <use xlink:href="#m631a4198e7" x="473.943551" y="228.96" style="stroke: #000000; stroke-width: 0.8"/>
      </g>
     </g>
     <g id="text_37">
      <!-- Kagawa -->
      <g transform="translate(476.702926 275.25375) rotate(-90) scale(0.1 -0.1)">
       <use xlink:href="#DejaVuSans-4b"/>
       <use xlink:href="#DejaVuSans-61" x="63.826172"/>
       <use xlink:href="#DejaVuSans-67" x="125.105469"/>
       <use xlink:href="#DejaVuSans-61" x="188.582031"/>
       <use xlink:href="#DejaVuSans-77" x="249.861328"/>
       <use xlink:href="#DejaVuSans-61" x="331.648438"/>
      </g>
     </g>
    </g>
    <g id="xtick_38">
     <g id="line2d_38">
      <g>
       <use xlink:href="#m631a4198e7" x="485.815891" y="228.96" style="stroke: #000000; stroke-width: 0.8"/>
      </g>
     </g>
     <g id="text_38">
      <!-- Ehime -->
      <g transform="translate(488.575266 267.288125) rotate(-90) scale(0.1 -0.1)">
       <defs>
        <path id="DejaVuSans-45" d="M 628 4666 
L 3578 4666 
L 3578 4134 
L 1259 4134 
L 1259 2753 
L 3481 2753 
L 3481 2222 
L 1259 2222 
L 1259 531 
L 3634 531 
L 3634 0 
L 628 0 
L 628 4666 
z
" transform="scale(0.015625)"/>
       </defs>
       <use xlink:href="#DejaVuSans-45"/>
       <use xlink:href="#DejaVuSans-68" x="63.183594"/>
       <use xlink:href="#DejaVuSans-69" x="126.5625"/>
       <use xlink:href="#DejaVuSans-6d" x="154.345703"/>
       <use xlink:href="#DejaVuSans-65" x="251.757812"/>
      </g>
     </g>
    </g>
    <g id="xtick_39">
     <g id="line2d_39">
      <g>
       <use xlink:href="#m631a4198e7" x="497.688231" y="228.96" style="stroke: #000000; stroke-width: 0.8"/>
      </g>
     </g>
     <g id="text_39">
      <!-- Kochi -->
      <g transform="translate(500.447606 262.750625) rotate(-90) scale(0.1 -0.1)">
       <use xlink:href="#DejaVuSans-4b"/>
       <use xlink:href="#DejaVuSans-6f" x="60.576172"/>
       <use xlink:href="#DejaVuSans-63" x="121.757812"/>
       <use xlink:href="#DejaVuSans-68" x="176.738281"/>
       <use xlink:href="#DejaVuSans-69" x="240.117188"/>
      </g>
     </g>
    </g>
    <g id="xtick_40">
     <g id="line2d_40">
      <g>
       <use xlink:href="#m631a4198e7" x="509.560572" y="228.96" style="stroke: #000000; stroke-width: 0.8"/>
      </g>
     </g>
     <g id="text_40">
      <!-- Fukuoka -->
      <g transform="translate(512.319947 277.177188) rotate(-90) scale(0.1 -0.1)">
       <use xlink:href="#DejaVuSans-46"/>
       <use xlink:href="#DejaVuSans-75" x="52.019531"/>
       <use xlink:href="#DejaVuSans-6b" x="115.398438"/>
       <use xlink:href="#DejaVuSans-75" x="170.183594"/>
       <use xlink:href="#DejaVuSans-6f" x="233.5625"/>
       <use xlink:href="#DejaVuSans-6b" x="294.744141"/>
       <use xlink:href="#DejaVuSans-61" x="350.904297"/>
      </g>
     </g>
    </g>
    <g id="xtick_41">
     <g id="line2d_41">
      <g>
       <use xlink:href="#m631a4198e7" x="521.432912" y="228.96" style="stroke: #000000; stroke-width: 0.8"/>
      </g>
     </g>
     <g id="text_41">
      <!-- Saga -->
      <g transform="translate(524.192287 260.913125) rotate(-90) scale(0.1 -0.1)">
       <use xlink:href="#DejaVuSans-53"/>
       <use xlink:href="#DejaVuSans-61" x="63.476562"/>
       <use xlink:href="#DejaVuSans-67" x="124.755859"/>
       <use xlink:href="#DejaVuSans-61" x="188.232422"/>
      </g>
     </g>
    </g>
    <g id="xtick_42">
     <g id="line2d_42">
      <g>
       <use xlink:href="#m631a4198e7" x="533.305253" y="228.96" style="stroke: #000000; stroke-width: 0.8"/>
      </g>
     </g>
     <g id="text_42">
      <!-- Nagasaki -->
      <g transform="translate(536.064628 281.952187) rotate(-90) scale(0.1 -0.1)">
       <use xlink:href="#DejaVuSans-4e"/>
       <use xlink:href="#DejaVuSans-61" x="74.804688"/>
       <use xlink:href="#DejaVuSans-67" x="136.083984"/>
       <use xlink:href="#DejaVuSans-61" x="199.560547"/>
       <use xlink:href="#DejaVuSans-73" x="260.839844"/>
       <use xlink:href="#DejaVuSans-61" x="312.939453"/>
       <use xlink:href="#DejaVuSans-6b" x="374.21875"/>
       <use xlink:href="#DejaVuSans-69" x="432.128906"/>
      </g>
     </g>
    </g>
    <g id="xtick_43">
     <g id="line2d_43">
      <g>
       <use xlink:href="#m631a4198e7" x="545.177593" y="228.96" style="stroke: #000000; stroke-width: 0.8"/>
      </g>
     </g>
     <g id="text_43">
      <!-- Kumamoto -->
      <g transform="translate(547.936968 290.1225) rotate(-90) scale(0.1 -0.1)">
       <use xlink:href="#DejaVuSans-4b"/>
       <use xlink:href="#DejaVuSans-75" x="60.576172"/>
       <use xlink:href="#DejaVuSans-6d" x="123.955078"/>
       <use xlink:href="#DejaVuSans-61" x="221.367188"/>
       <use xlink:href="#DejaVuSans-6d" x="282.646484"/>
       <use xlink:href="#DejaVuSans-6f" x="380.058594"/>
       <use xlink:href="#DejaVuSans-74" x="441.240234"/>
       <use xlink:href="#DejaVuSans-6f" x="480.449219"/>
      </g>
     </g>
    </g>
    <g id="xtick_44">
     <g id="line2d_44">
      <g>
       <use xlink:href="#m631a4198e7" x="557.049934" y="228.96" style="stroke: #000000; stroke-width: 0.8"/>
      </g>
     </g>
     <g id="text_44">
      <!-- Oita -->
      <g transform="translate(559.809309 256.658437) rotate(-90) scale(0.1 -0.1)">
       <use xlink:href="#DejaVuSans-4f"/>
       <use xlink:href="#DejaVuSans-69" x="78.710938"/>
       <use xlink:href="#DejaVuSans-74" x="106.494141"/>
       <use xlink:href="#DejaVuSans-61" x="145.703125"/>
      </g>
     </g>
    </g>
    <g id="xtick_45">
     <g id="line2d_45">
      <g>
       <use xlink:href="#m631a4198e7" x="568.922274" y="228.96" style="stroke: #000000; stroke-width: 0.8"/>
      </g>
     </g>
     <g id="text_45">
      <!-- Miyazaki -->
      <g transform="translate(571.681649 279.358437) rotate(-90) scale(0.1 -0.1)">
       <use xlink:href="#DejaVuSans-4d"/>
       <use xlink:href="#DejaVuSans-69" x="86.279297"/>
       <use xlink:href="#DejaVuSans-79" x="114.0625"/>
       <use xlink:href="#DejaVuSans-61" x="173.242188"/>
       <use xlink:href="#DejaVuSans-7a" x="234.521484"/>
       <use xlink:href="#DejaVuSans-61" x="287.011719"/>
       <use xlink:href="#DejaVuSans-6b" x="348.291016"/>
       <use xlink:href="#DejaVuSans-69" x="406.201172"/>
      </g>
     </g>
    </g>
    <g id="xtick_46">
     <g id="line2d_46">
      <g>
       <use xlink:href="#m631a4198e7" x="580.794614" y="228.96" style="stroke: #000000; stroke-width: 0.8"/>
      </g>
     </g>
     <g id="text_46">
      <!-- Kagoshima -->
      <g transform="translate(583.553989 291.131875) rotate(-90) scale(0.1 -0.1)">
       <use xlink:href="#DejaVuSans-4b"/>
       <use xlink:href="#DejaVuSans-61" x="63.826172"/>
       <use xlink:href="#DejaVuSans-67" x="125.105469"/>
       <use xlink:href="#DejaVuSans-6f" x="188.582031"/>
       <use xlink:href="#DejaVuSans-73" x="249.763672"/>
       <use xlink:href="#DejaVuSans-68" x="301.863281"/>
       <use xlink:href="#DejaVuSans-69" x="365.242188"/>
       <use xlink:href="#DejaVuSans-6d" x="393.025391"/>
       <use xlink:href="#DejaVuSans-61" x="490.4375"/>
      </g>
     </g>
    </g>
    <g id="xtick_47">
     <g id="line2d_47">
      <g>
       <use xlink:href="#m631a4198e7" x="592.666955" y="228.96" style="stroke: #000000; stroke-width: 0.8"/>
      </g>
     </g>
     <g id="text_47">
      <!-- Okinawa -->
      <g transform="translate(595.42633 279.1725) rotate(-90) scale(0.1 -0.1)">
       <use xlink:href="#DejaVuSans-4f"/>
       <use xlink:href="#DejaVuSans-6b" x="78.710938"/>
       <use xlink:href="#DejaVuSans-69" x="136.621094"/>
       <use xlink:href="#DejaVuSans-6e" x="164.404297"/>
       <use xlink:href="#DejaVuSans-61" x="227.783203"/>
       <use xlink:href="#DejaVuSans-77" x="289.0625"/>
       <use xlink:href="#DejaVuSans-61" x="370.849609"/>
      </g>
     </g>
    </g>
   </g>
   <g id="matplotlib.axis_2">
    <g id="ytick_1">
     <g id="line2d_48">
      <defs>
       <path id="me4c25e825d" d="M 0 0 
L -3.5 0 
" style="stroke: #000000; stroke-width: 0.8"/>
      </defs>
      <g>
       <use xlink:href="#me4c25e825d" x="40.603125" y="228.96" style="stroke: #000000; stroke-width: 0.8"/>
      </g>
     </g>
     <g id="text_48">
      <!-- 0 -->
      <g transform="translate(27.240625 232.759219) scale(0.1 -0.1)">
       <defs>
        <path id="DejaVuSans-30" d="M 2034 4250 
Q 1547 4250 1301 3770 
Q 1056 3291 1056 2328 
Q 1056 1369 1301 889 
Q 1547 409 2034 409 
Q 2525 409 2770 889 
Q 3016 1369 3016 2328 
Q 3016 3291 2770 3770 
Q 2525 4250 2034 4250 
z
M 2034 4750 
Q 2819 4750 3233 4129 
Q 3647 3509 3647 2328 
Q 3647 1150 3233 529 
Q 2819 -91 2034 -91 
Q 1250 -91 836 529 
Q 422 1150 422 2328 
Q 422 3509 836 4129 
Q 1250 4750 2034 4750 
z
" transform="scale(0.015625)"/>
       </defs>
       <use xlink:href="#DejaVuSans-30"/>
      </g>
     </g>
    </g>
    <g id="ytick_2">
     <g id="line2d_49">
      <g>
       <use xlink:href="#me4c25e825d" x="40.603125" y="188.579542" style="stroke: #000000; stroke-width: 0.8"/>
      </g>
     </g>
     <g id="text_49">
      <!-- 2 -->
      <g transform="translate(27.240625 192.378761) scale(0.1 -0.1)">
       <defs>
        <path id="DejaVuSans-32" d="M 1228 531 
L 3431 531 
L 3431 0 
L 469 0 
L 469 531 
Q 828 903 1448 1529 
Q 2069 2156 2228 2338 
Q 2531 2678 2651 2914 
Q 2772 3150 2772 3378 
Q 2772 3750 2511 3984 
Q 2250 4219 1831 4219 
Q 1534 4219 1204 4116 
Q 875 4013 500 3803 
L 500 4441 
Q 881 4594 1212 4672 
Q 1544 4750 1819 4750 
Q 2544 4750 2975 4387 
Q 3406 4025 3406 3419 
Q 3406 3131 3298 2873 
Q 3191 2616 2906 2266 
Q 2828 2175 2409 1742 
Q 1991 1309 1228 531 
z
" transform="scale(0.015625)"/>
       </defs>
       <use xlink:href="#DejaVuSans-32"/>
      </g>
     </g>
    </g>
    <g id="ytick_3">
     <g id="line2d_50">
      <g>
       <use xlink:href="#me4c25e825d" x="40.603125" y="148.199084" style="stroke: #000000; stroke-width: 0.8"/>
      </g>
     </g>
     <g id="text_50">
      <!-- 4 -->
      <g transform="translate(27.240625 151.998303) scale(0.1 -0.1)">
       <defs>
        <path id="DejaVuSans-34" d="M 2419 4116 
L 825 1625 
L 2419 1625 
L 2419 4116 
z
M 2253 4666 
L 3047 4666 
L 3047 1625 
L 3713 1625 
L 3713 1100 
L 3047 1100 
L 3047 0 
L 2419 0 
L 2419 1100 
L 313 1100 
L 313 1709 
L 2253 4666 
z
" transform="scale(0.015625)"/>
       </defs>
       <use xlink:href="#DejaVuSans-34"/>
      </g>
     </g>
    </g>
    <g id="ytick_4">
     <g id="line2d_51">
      <g>
       <use xlink:href="#me4c25e825d" x="40.603125" y="107.818626" style="stroke: #000000; stroke-width: 0.8"/>
      </g>
     </g>
     <g id="text_51">
      <!-- 6 -->
      <g transform="translate(27.240625 111.617845) scale(0.1 -0.1)">
       <defs>
        <path id="DejaVuSans-36" d="M 2113 2584 
Q 1688 2584 1439 2293 
Q 1191 2003 1191 1497 
Q 1191 994 1439 701 
Q 1688 409 2113 409 
Q 2538 409 2786 701 
Q 3034 994 3034 1497 
Q 3034 2003 2786 2293 
Q 2538 2584 2113 2584 
z
M 3366 4563 
L 3366 3988 
Q 3128 4100 2886 4159 
Q 2644 4219 2406 4219 
Q 1781 4219 1451 3797 
Q 1122 3375 1075 2522 
Q 1259 2794 1537 2939 
Q 1816 3084 2150 3084 
Q 2853 3084 3261 2657 
Q 3669 2231 3669 1497 
Q 3669 778 3244 343 
Q 2819 -91 2113 -91 
Q 1303 -91 875 529 
Q 447 1150 447 2328 
Q 447 3434 972 4092 
Q 1497 4750 2381 4750 
Q 2619 4750 2861 4703 
Q 3103 4656 3366 4563 
z
" transform="scale(0.015625)"/>
       </defs>
       <use xlink:href="#DejaVuSans-36"/>
      </g>
     </g>
    </g>
    <g id="ytick_5">
     <g id="line2d_52">
      <g>
       <use xlink:href="#me4c25e825d" x="40.603125" y="67.438168" style="stroke: #000000; stroke-width: 0.8"/>
      </g>
     </g>
     <g id="text_52">
      <!-- 8 -->
      <g transform="translate(27.240625 71.237387) scale(0.1 -0.1)">
       <defs>
        <path id="DejaVuSans-38" d="M 2034 2216 
Q 1584 2216 1326 1975 
Q 1069 1734 1069 1313 
Q 1069 891 1326 650 
Q 1584 409 2034 409 
Q 2484 409 2743 651 
Q 3003 894 3003 1313 
Q 3003 1734 2745 1975 
Q 2488 2216 2034 2216 
z
M 1403 2484 
Q 997 2584 770 2862 
Q 544 3141 544 3541 
Q 544 4100 942 4425 
Q 1341 4750 2034 4750 
Q 2731 4750 3128 4425 
Q 3525 4100 3525 3541 
Q 3525 3141 3298 2862 
Q 3072 2584 2669 2484 
Q 3125 2378 3379 2068 
Q 3634 1759 3634 1313 
Q 3634 634 3220 271 
Q 2806 -91 2034 -91 
Q 1263 -91 848 271 
Q 434 634 434 1313 
Q 434 1759 690 2068 
Q 947 2378 1403 2484 
z
M 1172 3481 
Q 1172 3119 1398 2916 
Q 1625 2713 2034 2713 
Q 2441 2713 2670 2916 
Q 2900 3119 2900 3481 
Q 2900 3844 2670 4047 
Q 2441 4250 2034 4250 
Q 1625 4250 1398 4047 
Q 1172 3844 1172 3481 
z
" transform="scale(0.015625)"/>
       </defs>
       <use xlink:href="#DejaVuSans-38"/>
      </g>
     </g>
    </g>
    <g id="ytick_6">
     <g id="line2d_53">
      <g>
       <use xlink:href="#me4c25e825d" x="40.603125" y="27.05771" style="stroke: #000000; stroke-width: 0.8"/>
      </g>
     </g>
     <g id="text_53">
      <!-- 10 -->
      <g transform="translate(20.878125 30.856929) scale(0.1 -0.1)">
       <defs>
        <path id="DejaVuSans-31" d="M 794 531 
L 1825 531 
L 1825 4091 
L 703 3866 
L 703 4441 
L 1819 4666 
L 2450 4666 
L 2450 531 
L 3481 531 
L 3481 0 
L 794 0 
L 794 531 
z
" transform="scale(0.015625)"/>
       </defs>
       <use xlink:href="#DejaVuSans-31"/>
       <use xlink:href="#DejaVuSans-30" x="63.623047"/>
      </g>
     </g>
    </g>
    <g id="text_54">
     <!-- Average Growth of Residential Solar [%] -->
     <g transform="translate(14.798437 218.408125) rotate(-90) scale(0.1 -0.1)">
      <defs>
       <path id="DejaVuSans-76" d="M 191 3500 
L 800 3500 
L 1894 563 
L 2988 3500 
L 3597 3500 
L 2284 0 
L 1503 0 
L 191 3500 
z
" transform="scale(0.015625)"/>
       <path id="DejaVuSans-20" transform="scale(0.015625)"/>
       <path id="DejaVuSans-52" d="M 2841 2188 
Q 3044 2119 3236 1894 
Q 3428 1669 3622 1275 
L 4263 0 
L 3584 0 
L 2988 1197 
Q 2756 1666 2539 1819 
Q 2322 1972 1947 1972 
L 1259 1972 
L 1259 0 
L 628 0 
L 628 4666 
L 2053 4666 
Q 2853 4666 3247 4331 
Q 3641 3997 3641 3322 
Q 3641 2881 3436 2590 
Q 3231 2300 2841 2188 
z
M 1259 4147 
L 1259 2491 
L 2053 2491 
Q 2509 2491 2742 2702 
Q 2975 2913 2975 3322 
Q 2975 3731 2742 3939 
Q 2509 4147 2053 4147 
L 1259 4147 
z
" transform="scale(0.015625)"/>
       <path id="DejaVuSans-6c" d="M 603 4863 
L 1178 4863 
L 1178 0 
L 603 0 
L 603 4863 
z
" transform="scale(0.015625)"/>
       <path id="DejaVuSans-5b" d="M 550 4863 
L 1875 4863 
L 1875 4416 
L 1125 4416 
L 1125 -397 
L 1875 -397 
L 1875 -844 
L 550 -844 
L 550 4863 
z
" transform="scale(0.015625)"/>
       <path id="DejaVuSans-25" d="M 4653 2053 
Q 4381 2053 4226 1822 
Q 4072 1591 4072 1178 
Q 4072 772 4226 539 
Q 4381 306 4653 306 
Q 4919 306 5073 539 
Q 5228 772 5228 1178 
Q 5228 1588 5073 1820 
Q 4919 2053 4653 2053 
z
M 4653 2450 
Q 5147 2450 5437 2106 
Q 5728 1763 5728 1178 
Q 5728 594 5436 251 
Q 5144 -91 4653 -91 
Q 4153 -91 3862 251 
Q 3572 594 3572 1178 
Q 3572 1766 3864 2108 
Q 4156 2450 4653 2450 
z
M 1428 4353 
Q 1159 4353 1004 4120 
Q 850 3888 850 3481 
Q 850 3069 1003 2837 
Q 1156 2606 1428 2606 
Q 1700 2606 1854 2837 
Q 2009 3069 2009 3481 
Q 2009 3884 1853 4118 
Q 1697 4353 1428 4353 
z
M 4250 4750 
L 4750 4750 
L 1831 -91 
L 1331 -91 
L 4250 4750 
z
M 1428 4750 
Q 1922 4750 2215 4408 
Q 2509 4066 2509 3481 
Q 2509 2891 2217 2550 
Q 1925 2209 1428 2209 
Q 931 2209 642 2551 
Q 353 2894 353 3481 
Q 353 4063 643 4406 
Q 934 4750 1428 4750 
z
" transform="scale(0.015625)"/>
       <path id="DejaVuSans-5d" d="M 1947 4863 
L 1947 -844 
L 622 -844 
L 622 -397 
L 1369 -397 
L 1369 4416 
L 622 4416 
L 622 4863 
L 1947 4863 
z
" transform="scale(0.015625)"/>
      </defs>
      <use xlink:href="#DejaVuSans-41"/>
      <use xlink:href="#DejaVuSans-76" x="62.533203"/>
      <use xlink:href="#DejaVuSans-65" x="121.712891"/>
      <use xlink:href="#DejaVuSans-72" x="183.236328"/>
      <use xlink:href="#DejaVuSans-61" x="224.349609"/>
      <use xlink:href="#DejaVuSans-67" x="285.628906"/>
      <use xlink:href="#DejaVuSans-65" x="349.105469"/>
      <use xlink:href="#DejaVuSans-20" x="410.628906"/>
      <use xlink:href="#DejaVuSans-47" x="442.416016"/>
      <use xlink:href="#DejaVuSans-72" x="519.90625"/>
      <use xlink:href="#DejaVuSans-6f" x="558.769531"/>
      <use xlink:href="#DejaVuSans-77" x="619.951172"/>
      <use xlink:href="#DejaVuSans-74" x="701.738281"/>
      <use xlink:href="#DejaVuSans-68" x="740.947266"/>
      <use xlink:href="#DejaVuSans-20" x="804.326172"/>
      <use xlink:href="#DejaVuSans-6f" x="836.113281"/>
      <use xlink:href="#DejaVuSans-66" x="897.294922"/>
      <use xlink:href="#DejaVuSans-20" x="932.5"/>
      <use xlink:href="#DejaVuSans-52" x="964.287109"/>
      <use xlink:href="#DejaVuSans-65" x="1029.269531"/>
      <use xlink:href="#DejaVuSans-73" x="1090.792969"/>
      <use xlink:href="#DejaVuSans-69" x="1142.892578"/>
      <use xlink:href="#DejaVuSans-64" x="1170.675781"/>
      <use xlink:href="#DejaVuSans-65" x="1234.152344"/>
      <use xlink:href="#DejaVuSans-6e" x="1295.675781"/>
      <use xlink:href="#DejaVuSans-74" x="1359.054688"/>
      <use xlink:href="#DejaVuSans-69" x="1398.263672"/>
      <use xlink:href="#DejaVuSans-61" x="1426.046875"/>
      <use xlink:href="#DejaVuSans-6c" x="1487.326172"/>
      <use xlink:href="#DejaVuSans-20" x="1515.109375"/>
      <use xlink:href="#DejaVuSans-53" x="1546.896484"/>
      <use xlink:href="#DejaVuSans-6f" x="1610.373047"/>
      <use xlink:href="#DejaVuSans-6c" x="1671.554688"/>
      <use xlink:href="#DejaVuSans-61" x="1699.337891"/>
      <use xlink:href="#DejaVuSans-72" x="1760.617188"/>
      <use xlink:href="#DejaVuSans-20" x="1801.730469"/>
      <use xlink:href="#DejaVuSans-5b" x="1833.517578"/>
      <use xlink:href="#DejaVuSans-25" x="1872.53125"/>
      <use xlink:href="#DejaVuSans-5d" x="1967.550781"/>
     </g>
    </g>
   </g>
   <g id="line2d_54">
    <path d="M 40.603125 60.717301 
L 598.603125 60.717301 
" clip-path="url(#p532df68875)" style="fill: none; stroke-dasharray: 1.5,2.475; stroke-dashoffset: 0; stroke: #000000; stroke-width: 1.5"/>
   </g>
   <g id="line2d_55">
    <path d="M 40.603125 60.717301 
L 598.603125 60.717301 
" clip-path="url(#p532df68875)" style="fill: none; stroke-dasharray: 1.5,2.475; stroke-dashoffset: 0; stroke: #000000; stroke-width: 1.5"/>
   </g>
   <g id="line2d_56">
    <path d="M 40.603125 97.042686 
L 598.603125 97.042686 
" clip-path="url(#p532df68875)" style="fill: none; stroke-dasharray: 1.5,2.475; stroke-dashoffset: 0; stroke: #ff0000; stroke-width: 1.5"/>
   </g>
   <g id="line2d_57">
    <path d="M 40.603125 24.391917 
L 598.603125 24.391917 
" clip-path="url(#p532df68875)" style="fill: none; stroke-dasharray: 1.5,2.475; stroke-dashoffset: 0; stroke: #ff0000; stroke-width: 1.5"/>
   </g>
   <g id="line2d_58">
    <path d="M 40.603125 60.717301 
L 598.603125 60.717301 
" clip-path="url(#p532df68875)" style="fill: none; stroke-dasharray: 1.5,2.475; stroke-dashoffset: 0; stroke: #000000; stroke-width: 1.5"/>
   </g>
   <g id="patch_50">
    <path d="M 40.603125 228.96 
L 40.603125 7.2 
" style="fill: none; stroke: #000000; stroke-width: 0.8; stroke-linejoin: miter; stroke-linecap: square"/>
   </g>
   <g id="patch_51">
    <path d="M 598.603125 228.96 
L 598.603125 7.2 
" style="fill: none; stroke: #000000; stroke-width: 0.8; stroke-linejoin: miter; stroke-linecap: square"/>
   </g>
   <g id="patch_52">
    <path d="M 40.603125 228.96 
L 598.603125 228.96 
" style="fill: none; stroke: #000000; stroke-width: 0.8; stroke-linejoin: miter; stroke-linecap: square"/>
   </g>
   <g id="patch_53">
    <path d="M 40.603125 7.2 
L 598.603125 7.2 
" style="fill: none; stroke: #000000; stroke-width: 0.8; stroke-linejoin: miter; stroke-linecap: square"/>
   </g>
  </g>
 </g>
 <defs>
  <clipPath id="p532df68875">
   <rect x="40.603125" y="7.2" width="558" height="221.76"/>
  </clipPath>
 </defs>
</svg>
